<?xml version="1.0" standalone="no"?>
<!DOCTYPE svg PUBLIC "-//W3C//DTD SVG 20010904//EN"
 "http://www.w3.org/TR/2001/REC-SVG-20010904/DTD/svg10.dtd">
<svg version="1.0" xmlns="http://www.w3.org/2000/svg"
 width="1280.000000pt" height="867.000000pt" viewBox="0 0 1280.000000 867.000000"
 preserveAspectRatio="xMidYMid meet">
<metadata>
Created by potrace 1.15, written by Peter Selinger 2001-2017
</metadata>
<g transform="translate(0.000000,867.000000) scale(0.100000,-0.100000)"
fill="#000000" stroke="none">
<path d="M6475 6768 c-226 -272 -383 -509 -506 -763 -108 -225 -124 -280 -124
-435 0 -144 15 -212 71 -323 86 -173 229 -298 415 -363 98 -35 288 -44 392
-20 393 92 629 480 536 881 -51 218 -92 314 -218 507 -121 186 -455 608 -480
608 -5 0 -43 -42 -86 -92z"/>
<path d="M5300 4663 c-202 -55 -306 -212 -266 -402 20 -95 56 -158 130 -230
107 -102 212 -142 421 -160 66 -6 156 -20 200 -31 80 -20 247 -93 265 -115 8
-9 -30 -14 -153 -19 -1001 -42 -1930 -210 -2467 -446 -246 -108 -427 -247
-491 -376 -35 -72 -34 -179 3 -250 94 -180 365 -345 790 -483 544 -176 1282
-291 2133 -332 276 -13 1199 -7 1420 10 400 31 719 66 1010 112 170 27 163 36
-12 15 -947 -113 -2219 -95 -3188 45 -730 105 -1336 291 -1599 490 -510 387
76 810 1429 1033 328 54 764 102 1120 122 l110 6 33 -35 33 -34 -178 -7 c-855
-33 -1520 -183 -1746 -395 -152 -142 -104 -281 140 -408 268 -140 685 -233
1283 -285 196 -17 897 -17 1100 0 177 15 541 60 548 67 7 7 -5 6 -163 -10
-505 -52 -1191 -37 -1713 36 -612 86 -1020 253 -1049 432 -12 75 56 162 182
232 247 138 768 250 1330 285 204 13 258 23 85 15 -71 -3 -109 -1 -100 4 8 5
78 12 155 16 l140 7 42 -59 c57 -78 135 -231 164 -321 22 -69 24 -72 32 -45 5
15 11 138 14 273 l4 245 34 3 34 3 3 -68 3 -68 33 68 33 67 257 0 c277 0 665
-13 881 -30 73 -6 135 -9 138 -7 11 12 -494 54 -802 67 -137 6 -293 14 -345
18 l-95 7 70 71 c71 72 161 127 250 154 22 6 110 15 195 20 175 10 220 22 295
78 73 55 109 119 113 202 6 104 -39 174 -143 222 -45 21 -64 23 -185 22 -119
0 -145 -4 -217 -28 -252 -83 -422 -314 -464 -631 -15 -121 -13 -115 -59 -115
-24 0 -42 5 -44 13 -2 6 -13 59 -26 117 -104 498 -465 807 -965 826 -94 3
-134 0 -185 -13z"/>
<path d="M7330 3594 c-25 -7 -58 -13 -75 -13 -16 -1 -37 -6 -45 -11 -10 -6 38
-10 145 -10 515 -1 1092 -74 1502 -190 395 -111 670 -272 743 -433 28 -60 26
-148 -4 -212 -113 -243 -649 -460 -1385 -560 -238 -32 -428 -45 -796 -55 -209
-6 -508 -14 -665 -18 -157 -5 -355 -5 -440 -1 -85 4 -156 6 -158 4 -5 -5 274
-45 383 -55 322 -29 754 -22 1215 21 1399 129 2169 411 2137 781 -7 77 -38
137 -108 213 -286 306 -1114 522 -2069 541 -140 2 -273 6 -295 7 -22 2 -60 -3
-85 -9z"/>
<path d="M7110 3304 c30 -2 135 -8 234 -14 636 -38 838 -207 366 -308 -172
-37 -294 -47 -582 -47 -152 0 -275 -1 -274 -2 1 -1 84 -7 183 -13 378 -23 811
28 957 112 22 13 48 35 59 49 18 25 18 28 3 57 -48 93 -364 160 -781 166 -121
2 -195 2 -165 0z"/>
</g>
</svg>
